HIERARCHY
ROOT Hips
{
	OFFSET 0.000000 0.000000 0.000000
	CHANNELS 6 Xposition Yposition Zposition Xrotation Yrotation Zrotation
	JOINT LeftUpLeg_virtual
	{
		OFFSET 0.000000 0.000000 0.000000
		CHANNELS 3 Xrotation Yrotation Zrotation
		JOINT LeftUpLeg
		{
			OFFSET 15.427100 -6.655098 0.678600
			CHANNELS 3 Xrotation Yrotation Zrotation
			JOINT LeftLeg
			{
				OFFSET 4.081073 -39.591068 13.024000
				CHANNELS 3 Xrotation Yrotation Zrotation
				JOINT LeftFoot
				{
					OFFSET -4.081074 -37.707932 -15.979700
					CHANNELS 3 Xrotation Yrotation Zrotation
					JOINT LeftToeBase
					{
						OFFSET 5.346399 -15.068900 20.645000
						CHANNELS 3 Xrotation Yrotation Zrotation
						JOINT LeftToe_End
						{
							OFFSET 2.754700 0.931300 11.300900
							CHANNELS 3 Xrotation Yrotation Zrotation
							End Site
							{
								OFFSET 0 0 0
							}
						}
					}
				}
			}
		}
	}
	JOINT RightUpLeg_virtual
	{
		OFFSET 0.000000 0.000000 0.000000
		CHANNELS 3 Xrotation Yrotation Zrotation
		JOINT RightUpLeg
		{
			OFFSET -15.569500 -6.655098 0.678600
			CHANNELS 3 Xrotation Yrotation Zrotation
			JOINT RightLeg
			{
				OFFSET -4.081825 -39.591045 13.023800
				CHANNELS 3 Xrotation Yrotation Zrotation
				JOINT RightFoot
				{
					OFFSET 4.081824 -37.707954 -15.979600
					CHANNELS 3 Xrotation Yrotation Zrotation
					JOINT RightToeBase
					{
						OFFSET -5.346400 -15.068900 20.645000
						CHANNELS 3 Xrotation Yrotation Zrotation
						JOINT RightToe_End
						{
							OFFSET -2.754700 0.931300 11.300900
							CHANNELS 3 Xrotation Yrotation Zrotation
							End Site
							{
								OFFSET 0 0 0
							}
						}
					}
				}
			}
		}
	}
	JOINT Spine_virtual
	{
		OFFSET 0.000000 0.000000 0.000000
		CHANNELS 3 Xrotation Yrotation Zrotation
		JOINT Spine
		{
			OFFSET -0.279200 12.230698 -2.892100
			CHANNELS 3 Xrotation Yrotation Zrotation
			JOINT Spine1
			{
				OFFSET -0.232667 10.192268 -1.242267
				CHANNELS 3 Xrotation Yrotation Zrotation
				JOINT Spine1_split
				{
					OFFSET -0.232667 10.192268 -1.242267
					CHANNELS 3 Xrotation Yrotation Zrotation
					JOINT Spine2
					{
						OFFSET -0.232667 10.192268 -1.242267
						CHANNELS 3 Xrotation Yrotation Zrotation
						JOINT Neck_virtual
						{
							OFFSET 0.000000 0.000000 0.000000
							CHANNELS 3 Xrotation Yrotation Zrotation
							JOINT Neck
							{
								OFFSET -0.418800 17.814194 8.416900
								CHANNELS 3 Xrotation Yrotation Zrotation
								JOINT Head
								{
									OFFSET 0.000000 7.031097 3.806800
									CHANNELS 3 Xrotation Yrotation Zrotation
									JOINT HeadTop_End
									{
										OFFSET 0.000000 24.646606 12.978600
										CHANNELS 3 Xrotation Yrotation Zrotation
										End Site
										{
											OFFSET 0 0 0
										}
									}
								}
							}
						}
						JOINT LeftShoulder_virtual
						{
							OFFSET 0.000000 0.000000 0.000000
							CHANNELS 3 Xrotation Yrotation Zrotation
							JOINT LeftShoulder
							{
								OFFSET 8.476499 7.247704 -3.868750
								CHANNELS 3 Xrotation Yrotation Zrotation
								JOINT LeftShoulder_split
								{
									OFFSET 8.476499 7.247704 -3.868750
									CHANNELS 3 Xrotation Yrotation Zrotation
									JOINT LeftArm
									{
										OFFSET 9.308998 -2.777710 0.208600
										CHANNELS 3 Xrotation Yrotation Zrotation
										JOINT LeftForeArm
										{
											OFFSET 29.972298 0.000000 0.000000
											CHANNELS 3 Xrotation Yrotation Zrotation
											JOINT LeftHand
											{
												OFFSET 26.026505 0.000000 0.000000
												CHANNELS 3 Xrotation Yrotation Zrotation
												End Site
												{
													OFFSET 0 0 0
												}
											}
										}
									}
								}
							}
						}
						JOINT RightShoulder_virtual
						{
							OFFSET 0.000000 0.000000 0.000000
							CHANNELS 3 Xrotation Yrotation Zrotation
							JOINT RightShoulder
							{
								OFFSET -7.570500 7.247704 -3.868750
								CHANNELS 3 Xrotation Yrotation Zrotation
								JOINT RightShoulder_split
								{
									OFFSET -7.570500 7.247704 -3.868750
									CHANNELS 3 Xrotation Yrotation Zrotation
									JOINT RightArm
									{
										OFFSET -9.308998 -2.777710 0.208500
										CHANNELS 3 Xrotation Yrotation Zrotation
										JOINT RightForeArm
										{
											OFFSET -29.972300 0.000000 0.000000
											CHANNELS 3 Xrotation Yrotation Zrotation
											JOINT RightHand
											{
												OFFSET -26.026505 0.000000 0.000000
												CHANNELS 3 Xrotation Yrotation Zrotation
												End Site
												{
													OFFSET 0 0 0
												}
											}
										}
									}
								}
							}
						}
					}
				}
			}
		}
	}
}
MOTION
Frames: 8
Frame Time: 0.03333333
0.178317 94.242302 0.797512 0.000000 0.000000 0.000000 -6.165038 -17.164936 -1.576016 4.836154 22.746917 4.068671 8.767907 5.188157 -0.321370 -13.459231 -0.897767 -0.380510 3.181866 0.548800 -0.950742 0.000000 0.000000 0.000000 -6.250935 -14.753478 -1.454726 0.489903 -8.081645 -13.842889 7.594076 -9.311816 1.689055 1.956974 -2.532969 5.547307 -4.172623 -0.247507 -0.815415 0.000000 0.000000 0.000000 -6.048837 -17.000547 -2.182257 10.255509 2.698578 0.623064 -4.510099 1.369686 -0.952152 0.862863 0.512340 0.137027 0.000000 0.000000 0.000000 -5.728775 3.770011 -1.369469 5.273237 3.708783 1.335958 2.042150 -6.436813 4.929611 0.000000 0.000000 0.000000 -6.071259 3.807315 -1.608117 2.335994 -13.216095 -2.801285 -1.946767 -2.148762 -0.144853 15.364622 6.014760 -74.945098 3.881008 -10.147253 0.936663 0.000000 0.000000 0.000000 -4.958791 3.972654 -1.478128 1.116541 2.898291 4.985740 -3.399061 -1.218364 -1.275282 0.568333 7.815797 79.911588 2.270852 20.524061 1.696688 0.000000 0.000000 0.000000 
0.245676 94.132889 0.785938 0.000000 0.000000 0.000000 -6.251454 -17.520948 -1.586507 4.482716 22.699317 4.028058 9.360108 5.134247 -0.162716 -13.552708 -0.959876 -0.376494 3.243911 0.536079 -0.987215 0.000000 0.000000 0.000000 -6.264907 -14.774524 -1.467089 0.397760 -8.218782 -13.671307 7.318908 -9.476905 1.492642 2.155820 -2.687822 5.649568 -4.375096 -0.183031 -0.818599 0.000000 0.000000 0.000000 -6.212167 -17.103057 -2.252637 10.205276 2.657369 0.643945 -4.564831 1.363883 -1.003385 0.762214 0.575586 0.100943 0.000000 0.000000 0.000000 -5.854436 3.760756 -1.416080 5.342076 3.670288 1.383644 2.041375 -6.414010 4.882319 0.000000 0.000000 0.000000 -6.093837 3.806656 -1.662763 2.309207 -13.101124 -2.944747 -1.986981 -2.038170 -0.144032 15.340188 6.393604 -74.687504 3.696791 -10.023529 0.746871 0.000000 0.000000 0.000000 -4.950535 3.978872 -1.541813 1.100388 2.999274 5.104563 -3.242766 -1.164800 -1.260315 0.610255 7.887329 80.040617 2.359392 21.022501 1.709387 0.000000 0.000000 0.000000 
0.322088 93.947296 0.741703 0.000000 0.000000 0.000000 -6.179434 -17.648237 -1.641972 3.636190 22.448527 4.291230 10.542200 4.849247 0.051272 -13.657524 -1.294716 -0.399191 3.179587 0.508996 -1.022340 0.000000 0.000000 0.000000 -6.271098 -14.567839 -1.561784 0.185401 -8.688182 -13.470761 7.412648 -9.533144 1.305857 1.847324 -2.718993 5.916102 -4.358663 -0.051898 -0.673217 0.000000 0.000000 0.000000 -6.205414 -17.178462 -2.347806 10.097173 2.583276 0.741164 -4.623274 1.349946 -1.079606 0.751542 0.559418 0.112758 0.000000 0.000000 0.000000 -5.975624 3.742706 -1.489176 5.385790 3.629182 1.314458 1.956622 -6.502156 5.018172 0.000000 0.000000 0.000000 -6.104182 3.788017 -1.720187 2.245308 -12.912313 -3.175627 -2.041216 -2.076832 -0.175410 15.321663 6.778469 -74.079180 3.717012 -9.718922 0.625887 0.000000 0.000000 0.000000 -4.945047 3.964587 -1.621891 1.065249 3.030683 5.328156 -3.281172 -1.176238 -1.263890 0.629929 8.470831 79.898556 2.641530 21.563174 1.776510 0.000000 0.000000 0.000000 
0.459950 93.693489 0.547752 0.000000 0.000000 0.000000 -6.002200 -17.530259 -1.695855 2.415975 22.123309 4.747637 12.089078 4.466071 0.250662 -13.754785 -1.843140 -0.315654 3.036479 0.463053 -1.010591 0.000000 0.000000 0.000000 -6.283842 -14.173964 -1.682342 -0.161127 -9.387298 -13.339908 7.751663 -9.445262 1.128466 1.100215 -2.662557 6.275148 -3.942317 0.127181 -0.398638 0.000000 0.000000 0.000000 -6.034525 -17.242855 -2.440155 9.972069 2.488566 0.864445 -4.669529 1.339277 -1.163502 0.844546 0.551205 0.167119 0.000000 0.000000 0.000000 -6.088002 3.721094 -1.566619 5.398787 3.582594 1.166124 1.824668 -6.685192 5.311733 0.000000 0.000000 0.000000 -6.093405 3.760939 -1.765849 2.152882 -12.656440 -3.471223 -1.991488 -2.286486 -0.197767 15.192595 6.999507 -73.267972 3.909780 -9.309661 0.534796 0.000000 0.000000 0.000000 -4.936372 3.937239 -1.701484 1.015752 2.987148 5.641432 -3.461068 -1.200351 -1.281039 0.663064 9.372333 79.457121 3.094815 22.069840 1.909892 0.000000 0.000000 0.000000 
0.682597 93.384598 0.157173 0.000000 0.000000 0.000000 -5.765231 -17.287962 -1.704357 1.058553 21.882593 5.187911 13.722031 4.123371 0.378683 -13.910967 -2.466049 0.035988 2.925726 0.394131 -0.963019 0.000000 0.000000 0.000000 -6.258610 -13.755567 -1.743363 -0.580054 -10.170877 -13.318040 8.074197 -9.214758 0.938910 0.094540 -2.537906 6.657963 -3.242160 0.302860 -0.035018 0.000000 0.000000 0.000000 -5.765980 -17.353610 -2.489142 9.900523 2.389619 0.919583 -4.705574 1.343538 -1.235705 0.974562 0.636345 0.251589 0.000000 0.000000 0.000000 -6.181910 3.712458 -1.628349 5.341014 3.540378 1.028560 1.663664 -6.870036 5.705587 0.000000 0.000000 0.000000 -6.083730 3.746846 -1.785801 2.052500 -12.354522 -3.775602 -1.863443 -2.603893 -0.085831 14.905469 7.016788 -72.401904 4.185174 -8.949459 0.417402 0.000000 0.000000 0.000000 -4.928919 3.910085 -1.759407 0.950912 2.847384 6.040870 -3.715325 -1.186365 -1.296589 0.734858 10.333880 78.745067 3.676723 22.437356 2.129937 0.000000 0.000000 0.000000 
1.019150 93.015366 -0.373894 0.000000 0.000000 0.000000 -5.466406 -17.102659 -1.628453 -0.215999 21.912145 5.404299 15.156639 3.911651 0.383598 -14.205621 -3.030519 0.698869 2.918021 0.313765 -0.916929 0.000000 0.000000 0.000000 -6.167330 -13.557649 -1.715882 -1.117952 -10.928001 -13.452824 8.232523 -8.857143 0.748173 -0.754883 -2.389112 7.032664 -2.533935 0.423878 0.323889 0.000000 0.000000 0.000000 -5.502022 -17.600501 -2.478883 9.951789 2.308362 0.832420 -4.745862 1.378395 -1.272218 1.035806 0.782930 0.333851 0.000000 0.000000 0.000000 -6.249896 3.725911 -1.649403 5.201793 3.522953 0.977730 1.504097 -6.968157 6.120678 0.000000 0.000000 0.000000 -6.083402 3.759180 -1.766277 1.967206 -11.993869 -4.030083 -1.720430 -2.879504 0.110295 14.419547 6.878854 -71.600347 4.383478 -8.788410 0.196048 0.000000 0.000000 0.000000 -4.924566 3.899791 -1.772113 0.866294 2.633616 6.496972 -3.991278 -1.136527 -1.312235 0.864336 11.069906 77.793901 4.340006 22.555045 2.441411 0.000000 0.000000 0.000000 
1.400417 92.641357 -0.958607 0.000000 0.000000 0.000000 -5.203066 -17.237055 -1.485470 -1.175648 22.315099 5.329686 16.127718 3.818853 0.303518 -14.559414 -3.438337 1.509876 2.914390 0.236458 -0.874560 0.000000 0.000000 0.000000 -6.072398 -13.775796 -1.609900 -1.859747 -11.531887 -13.662941 8.146986 -8.400514 0.628748 -1.007682 -2.247259 7.448267 -2.227139 0.418444 0.594465 0.000000 0.000000 0.000000 -5.365853 -17.982146 -2.406672 10.212939 2.243875 0.536310 -4.799296 1.441657 -1.253791 1.007947 0.895359 0.402265 0.000000 0.000000 0.000000 -6.280236 3.761919 -1.608197 4.973650 3.558469 1.074259 1.355982 -6.920436 6.476680 0.000000 0.000000 0.000000 -6.102334 3.804904 -1.695515 1.897467 -11.570673 -4.196261 -1.571749 -3.115423 0.322737 13.775353 6.689901 -70.927068 4.365502 -8.845904 -0.192725 0.000000 0.000000 0.000000 -4.937379 3.915648 -1.716053 0.758554 2.379512 6.979594 -4.230381 -1.055095 -1.322467 1.019545 11.445405 76.724765 5.031631 22.400377 2.830823 0.000000 0.000000 0.000000 
1.848355 92.375351 -1.638321 0.000000 0.000000 0.000000 -5.029105 -17.875824 -1.317970 -1.726076 23.100154 4.968329 16.600589 3.822308 0.164278 -14.820565 -3.591100 2.293307 2.850370 0.166492 -0.863622 0.000000 0.000000 0.000000 -6.022031 -14.523111 -1.476968 -2.790168 -11.892396 -13.886505 7.923163 -7.770660 0.614929 -0.453234 -2.020148 7.905329 -2.328998 0.226572 0.693069 0.000000 0.000000 0.000000 -5.345394 -18.553784 -2.296354 10.710622 2.195319 0.005572 -4.879558 1.525728 -1.165557 0.949046 0.913923 0.413847 0.000000 0.000000 0.000000 -6.270753 3.819082 -1.486518 4.657693 3.683773 1.356318 1.202458 -6.695706 6.695287 0.000000 0.000000 0.000000 -6.147622 3.879927 -1.568363 1.846452 -11.112252 -4.269704 -1.411749 -3.322743 0.446185 13.124051 6.600872 -70.381725 4.031919 -9.170343 -0.769403 0.000000 0.000000 0.000000 -4.969276 3.957233 -1.574511 0.635920 2.137609 7.446299 -4.447384 -0.948761 -1.354274 1.173755 11.451184 75.629401 5.707918 22.053188 3.274176 0.000000 0.000000 0.000000 
